<?xml version="1.0" standalone="no"?><!DOCTYPE svg PUBLIC "-//W3C//DTD SVG 1.1//EN" "http://www.w3.org/Graphics/SVG/1.1/DTD/svg11.dtd"><svg t="1731129567123" class="icon" viewBox="0 0 1024 1024" version="1.1" xmlns="http://www.w3.org/2000/svg" p-id="21588" xmlns:xlink="http://www.w3.org/1999/xlink" width="64" height="64"><path d="M787.000889 155.875556H331.207111C284.444444 155.875556 250.311111 204.8 250.311111 248.035556v2.275555h-13.312a81.237333 81.237333 0 0 0-81.123555 81.123556v455.566222a81.237333 81.237333 0 0 0 81.123555 81.123555h455.793778A81.237333 81.237333 0 0 0 773.688889 787.000889V773.688889h2.048c43.463111 0 92.16-34.133333 92.16-81.123556V236.999111a81.237333 81.237333 0 0 0-80.896-81.123555z m-76.8 631.125333a17.408 17.408 0 0 1-17.408 17.408H236.999111a17.294222 17.294222 0 0 1-17.408-17.408V331.207111a17.408 17.408 0 0 1 17.408-17.408h455.793778a17.521778 17.521778 0 0 1 17.408 17.408z m94.208-94.208c0 7.850667-17.521778 17.408-28.444445 17.408H773.688889V331.207111A81.237333 81.237333 0 0 0 692.792889 250.311111H313.799111v-2.275555c0-11.377778 9.443556-28.444444 17.408-28.444445h455.793778a17.294222 17.294222 0 0 1 17.408 17.408z" fill="#f4f4f4" p-id="21589"></path><path d="M494.592 424.391111L429.966222 489.244444a81.351111 81.351111 0 0 0-23.438222 50.176 26.055111 26.055111 0 0 0-5.006222-7.281777 25.713778 25.713778 0 0 0-35.271111 0l-53.134223 53.134222a81.578667 81.578667 0 0 0 115.370667 115.143111l64.625778-64.625778a81.237333 81.237333 0 0 0 23.552-50.062222 25.258667 25.258667 0 0 0 4.892444 7.054222 24.803556 24.803556 0 0 0 35.271111 0l53.134223-53.020444A81.578667 81.578667 0 0 0 494.592 424.391111z m79.644444 79.644445L521.557333 557.511111a26.282667 26.282667 0 0 0-5.688889 8.874667 79.644444 79.644444 0 0 0-13.084444-34.133334 24.917333 24.917333 0 0 0-41.073778 28.216889 31.744 31.744 0 0 1-3.868444 40.277334l-64.625778 64.625777a31.516444 31.516444 0 0 1-22.755556 9.216 31.744 31.744 0 0 1-22.755555-54.044444l53.134222-53.020444a24.576 24.576 0 0 0 5.688889-9.102223 81.578667 81.578667 0 0 0 13.084444 34.133334 24.917333 24.917333 0 1 0 41.073778-28.216889 31.630222 31.630222 0 0 1 3.868445-40.163556l64.625777-64.625778a31.744 31.744 0 0 1 44.828445 44.828445z" fill="#f4f4f4" p-id="21590"></path></svg>