<?xml version="1.0" standalone="no"?><!DOCTYPE svg PUBLIC "-//W3C//DTD SVG 1.1//EN" "http://www.w3.org/Graphics/SVG/1.1/DTD/svg11.dtd"><svg t="1731129683463" class="icon" viewBox="0 0 1024 1024" version="1.1" xmlns="http://www.w3.org/2000/svg" p-id="22817" xmlns:xlink="http://www.w3.org/1999/xlink" width="64" height="64"><path d="M833.47968 201.61024l-11.09504-11.09504c-76.52864-76.52864-200.6016-76.52864-277.13024 0L434.40128 301.37344a196.71552 196.71552 0 0 0-14.7456 16.62464l76.74368-10.04544 83.15392-83.13856c52.02432-52.03968 156.50304-52.03968 208.54272 0l11.09504 11.09504c52.03968 52.02432 52.03968 156.51328 0 208.54272L688.3328 555.3152c-52.03968 52.02432-159.53408 53.0432-211.57376 0.9984l-11.09504-11.07968c-7.77216-7.78752-14.24384-16.35328-19.70176-25.3696l-51.86048-0.22528c9.50272 21.34016 22.79424 41.3696 40.2944 58.87488l11.07968 11.07968c76.52864 76.52864 200.61696 76.52864 277.13024 0l110.86848-110.85312c76.53888-76.52864 76.53888-200.6016 0.00512-277.13024z" fill="#f4f4f4" p-id="22818"></path><path d="M444.45184 799.20128c-52.03968 52.03968-156.5184 52.03968-208.55808 0l-11.09504-11.09504c-52.03968-52.03968-52.03968-156.51328 0-208.55808l110.85312-110.85312c52.03968-52.03968 156.51328-52.03968 208.55808 0l11.09504 11.07968c7.77216 7.78752 14.24384 16.35328 19.70176 25.35424l54.87616-0.75776c-9.50272-21.33504-22.79424-41.38496-40.27904-58.87488l-11.09504-11.09504c-76.52864-76.52864-200.61696-76.52864-277.13024 0l-110.86848 110.86848c-76.51328 76.51328-76.51328 200.6016 0 277.13024l11.09504 11.09504c76.52864 76.51328 200.61696 76.51328 277.1456 0l113.8688-118.90176-65.02912 1.45408-83.13856 83.15392z" fill="#f4f4f4" p-id="22819"></path></svg>